<svg xmlns="http://www.w3.org/2000/svg" xmlns:xlink="http://www.w3.org/1999/xlink" preserveAspectRatio="xMidYMid" width="1399.285" height="1443.38" viewBox="0 0 1399.285 1443.38">
  <defs>
    <style>
      .cls-1 {
        fill: #2f3549;
        fill-rule: evenodd;
      }
    </style>
  </defs>
  <path d="M1395.627,1208.869 C1393.253,1209.263 1391.009,1207.647 1390.620,1205.256 C1390.235,1202.887 1391.841,1200.646 1394.216,1200.260 C1396.603,1199.872 1398.844,1201.472 1399.232,1203.857 C1399.618,1206.233 1398.015,1208.481 1395.627,1208.869 ZM1357.060,391.171 C1354.695,391.574 1352.443,389.948 1352.057,387.576 C1351.669,385.186 1353.274,382.946 1355.650,382.561 C1358.036,382.159 1360.269,383.789 1360.673,386.156 C1361.060,388.535 1359.455,390.781 1357.060,391.171 ZM1354.862,808.164 C1355.248,810.541 1353.637,812.790 1351.249,813.177 C1348.883,813.572 1346.632,811.956 1346.245,809.577 C1345.858,807.195 1347.461,804.937 1349.836,804.551 C1352.222,804.164 1354.455,805.783 1354.862,808.164 ZM1351.366,1068.777 C1351.368,1068.786 1351.369,1068.794 1351.370,1068.802 C1351.757,1071.182 1350.142,1073.411 1347.775,1073.804 C1345.400,1074.190 1343.158,1072.581 1342.770,1070.197 C1342.383,1067.811 1343.988,1065.572 1346.362,1065.176 C1348.749,1064.789 1350.980,1066.399 1351.366,1068.777 ZM1263.138,500.440 C1262.751,498.060 1264.356,495.816 1266.742,495.428 C1269.115,495.025 1271.364,496.631 1271.753,499.021 C1272.139,501.399 1270.526,503.634 1268.157,504.019 C1265.772,504.426 1263.543,502.816 1263.138,500.440 ZM1283.930,878.782 C1283.972,879.043 1283.990,879.303 1283.986,879.559 L1333.206,884.888 L1328.566,1107.725 C1329.728,1108.342 1330.595,1109.477 1330.823,1110.881 C1330.824,1110.891 1330.826,1110.901 1330.828,1110.911 C1331.212,1113.278 1329.606,1115.508 1327.230,1115.900 C1324.863,1116.284 1322.623,1114.666 1322.227,1112.294 C1322.129,1111.689 1322.160,1111.092 1322.299,1110.531 L1147.557,1074.530 L1147.362,1074.492 L1110.719,996.032 C1110.471,996.120 1110.212,996.188 1109.942,996.232 C1107.568,996.633 1105.318,995.009 1104.932,992.632 C1104.789,991.753 1104.919,990.891 1105.259,990.135 L1092.373,982.866 L1102.127,1023.224 C1105.266,1022.855 1108.171,1025.031 1108.684,1028.187 C1109.209,1031.420 1107.011,1034.472 1103.772,1034.998 C1102.047,1035.279 1100.375,1034.785 1099.110,1033.773 L1029.158,1087.328 L1108.161,1208.110 C1108.510,1207.950 1108.886,1207.832 1109.283,1207.767 C1111.655,1207.374 1113.907,1208.997 1114.308,1211.386 C1114.692,1213.748 1113.076,1216.006 1110.702,1216.391 C1110.088,1216.491 1109.484,1216.457 1108.918,1216.313 L1085.283,1298.023 C1086.504,1298.626 1087.427,1299.788 1087.662,1301.235 C1088.050,1303.620 1086.445,1305.863 1084.070,1306.255 C1081.683,1306.643 1079.434,1305.035 1079.047,1302.652 C1078.774,1300.968 1079.503,1299.356 1080.790,1298.414 L1015.401,1206.981 C1014.951,1207.248 1014.444,1207.438 1013.896,1207.529 C1011.677,1207.890 1009.593,1206.522 1009.001,1204.420 L832.436,1237.939 L830.177,1239.669 C829.820,1241.382 828.447,1242.779 826.612,1243.082 C826.288,1243.135 825.966,1243.151 825.652,1243.132 L810.940,1254.397 C811.264,1254.980 811.494,1255.628 811.607,1256.325 C812.134,1259.566 809.935,1262.618 806.700,1263.143 C803.461,1263.669 800.414,1261.470 799.887,1258.229 C799.682,1256.964 799.892,1255.727 800.417,1254.657 L758.353,1228.166 L675.700,1214.698 L675.487,1214.668 L656.048,1163.736 L519.175,1077.538 C520.138,1078.187 520.842,1079.219 521.044,1080.459 C521.431,1082.843 519.825,1085.082 517.451,1085.468 C515.074,1085.864 512.825,1084.247 512.431,1081.874 C512.431,1081.870 512.430,1081.866 512.429,1081.862 C512.043,1079.483 513.652,1077.240 516.038,1076.853 C517.077,1076.680 518.092,1076.893 518.938,1077.389 L474.140,1049.174 C473.113,1050.479 471.614,1051.416 469.848,1051.703 C466.096,1052.312 462.567,1049.768 461.956,1046.013 C461.848,1045.344 461.839,1044.683 461.919,1044.045 L206.192,982.752 C205.322,984.914 203.379,986.582 200.915,986.983 C197.172,987.591 193.636,985.031 193.026,981.276 C192.416,977.521 194.962,973.991 198.706,973.383 C198.811,973.366 198.916,973.351 199.022,973.338 L221.403,849.764 L148.858,817.151 C148.232,818.267 147.123,819.099 145.760,819.320 C143.379,819.707 141.140,818.094 140.746,815.716 L140.744,815.707 C140.358,813.327 141.967,811.088 144.345,810.702 C144.918,810.608 145.484,810.629 146.018,810.750 L227.427,560.212 C226.105,559.643 225.092,558.430 224.844,556.904 C224.458,554.526 226.055,552.282 228.449,551.894 C230.814,551.509 233.056,553.118 233.442,555.496 L233.443,555.504 C233.445,555.518 233.448,555.531 233.449,555.543 L365.585,547.457 C365.596,547.071 365.657,546.695 365.765,546.336 L270.641,508.227 C270.031,509.427 268.878,510.332 267.453,510.564 C265.080,510.949 262.842,509.341 262.446,506.952 L262.444,506.940 C262.058,504.566 263.672,502.339 266.044,501.935 C267.167,501.752 268.262,502.016 269.145,502.599 L353.250,396.899 L330.727,308.610 C328.361,308.995 326.123,307.379 325.737,305.007 C325.737,305.007 325.735,304.990 325.733,304.982 C325.347,302.602 326.962,300.382 329.327,299.979 C331.570,299.614 333.700,301.038 334.261,303.196 L440.700,285.736 C440.534,283.509 442.113,281.491 444.352,281.116 C444.427,281.104 444.502,281.093 444.575,281.086 L441.512,131.613 C439.953,131.154 438.708,129.840 438.429,128.120 C438.043,125.744 439.657,123.509 442.036,123.109 C443.846,122.815 445.580,123.680 446.474,125.166 L550.087,76.938 C550.009,76.713 549.949,76.477 549.909,76.233 C549.523,73.857 551.139,71.621 553.506,71.224 C555.889,70.837 558.128,72.446 558.514,74.824 C558.515,74.827 558.515,74.831 558.515,74.831 C558.745,76.247 558.272,77.612 557.350,78.566 L649.149,174.384 C649.711,173.933 650.394,173.617 651.157,173.493 C653.541,173.091 655.780,174.712 656.176,177.103 C656.461,178.854 655.666,180.534 654.271,181.453 L658.392,189.124 L711.929,154.868 C711.860,154.632 711.805,154.388 711.764,154.140 C711.236,150.885 713.431,147.834 716.669,147.307 C719.908,146.781 722.956,148.981 723.484,152.236 C723.563,152.719 723.581,153.198 723.544,153.666 L1264.075,426.537 C1264.954,425.181 1266.381,424.187 1268.103,423.908 C1271.341,423.382 1274.392,425.581 1274.919,428.825 C1275.444,432.061 1273.247,435.113 1270.009,435.639 C1268.795,435.836 1267.609,435.651 1266.571,435.172 L1168.267,584.939 C1169.146,585.796 1169.769,586.934 1169.981,588.242 C1170.508,591.485 1168.313,594.538 1165.074,595.064 C1163.631,595.298 1162.219,594.987 1161.052,594.278 L1082.835,679.298 L1140.086,706.429 C1140.719,705.349 1141.810,704.546 1143.144,704.327 C1145.499,703.935 1147.765,705.558 1148.151,707.933 C1148.189,708.170 1148.208,708.405 1148.208,708.638 L1322.431,724.542 C1322.816,722.859 1324.174,721.497 1325.981,721.204 C1328.351,720.818 1330.599,722.435 1330.985,724.810 C1331.371,727.190 1329.769,729.443 1327.396,729.828 C1326.813,729.923 1326.240,729.899 1325.701,729.775 L1281.272,875.448 C1282.631,876.002 1283.678,877.230 1283.930,878.782 ZM1100.625,1023.602 L1090.530,981.827 L1032.375,949.019 C1031.723,949.870 1030.756,950.484 1029.608,950.677 C1028.777,950.811 1027.962,950.701 1027.236,950.399 L1002.650,992.969 L1097.270,1027.018 C1097.854,1025.484 1099.058,1024.225 1100.625,1023.602 ZM1111.634,522.978 L1093.634,487.138 L1059.870,492.680 C1060.037,494.914 1058.469,496.946 1056.220,497.311 C1055.684,497.398 1055.155,497.384 1054.652,497.282 L1052.996,502.842 L1101.448,540.265 L1110.902,529.737 C1110.278,529.114 1109.837,528.295 1109.684,527.354 C1109.398,525.590 1110.214,523.892 1111.634,522.978 ZM1052.707,489.656 L1012.664,432.082 C1010.411,432.286 1008.338,430.719 1007.968,428.443 C1007.947,428.315 1007.933,428.189 1007.923,428.063 L952.790,420.449 L962.405,431.505 C963.034,431.127 963.743,430.860 964.507,430.736 C967.746,430.210 970.794,432.407 971.321,435.652 C971.532,436.953 971.304,438.225 970.746,439.315 L1052.327,502.325 L1052.640,501.274 L1053.897,497.055 C1052.528,496.503 1051.470,495.270 1051.215,493.699 C1050.959,492.126 1051.575,490.612 1052.707,489.656 ZM735.390,494.629 L552.723,415.553 C552.283,417.137 550.957,418.402 549.224,418.691 C546.844,419.077 544.603,417.470 544.216,415.092 L544.215,415.083 C544.041,414.013 544.269,412.973 544.787,412.116 L489.361,388.123 L477.001,402.447 C477.412,402.993 477.700,403.644 477.817,404.367 C477.818,404.374 477.819,404.379 477.820,404.384 C478.017,405.599 477.697,406.772 477.020,407.684 L519.681,460.726 C520.181,460.390 520.760,460.153 521.394,460.045 C523.769,459.659 526.009,461.286 526.402,463.656 C526.594,464.837 526.296,465.986 525.657,466.890 L636.495,561.827 L735.718,498.588 C735.509,498.124 735.358,497.625 735.272,497.099 C735.134,496.248 735.184,495.411 735.390,494.629 ZM558.312,275.392 C558.312,275.392 558.312,275.391 558.312,275.390 L523.581,278.589 L521.052,278.823 L469.633,311.725 L510.509,356.470 C511.057,356.055 511.714,355.763 512.444,355.645 C513.336,355.500 514.209,355.636 514.972,355.989 L560.074,278.157 C559.181,277.521 558.526,276.550 558.312,275.392 ZM561.885,270.287 C563.121,270.086 564.319,270.423 565.240,271.127 L584.509,250.237 L611.563,220.906 L522.521,277.882 L558.237,274.589 C558.231,272.490 559.751,270.634 561.885,270.287 ZM517.732,279.129 L449.421,285.428 C449.425,286.539 449.005,287.580 448.294,288.365 L468.584,310.577 L517.732,279.129 ZM509.917,357.011 L468.945,312.165 L412.121,348.525 C412.525,349.173 412.809,349.909 412.939,350.708 C413.085,351.605 413.025,352.487 412.793,353.304 L489.641,386.570 L510.003,362.979 C509.410,362.362 508.993,361.562 508.845,360.653 C508.845,360.653 508.842,360.642 508.841,360.636 C508.621,359.275 509.055,357.959 509.917,357.011 ZM371.787,551.545 L402.552,637.530 L520.776,632.159 C520.778,630.083 521.881,628.183 523.602,627.120 L467.257,494.821 L373.954,545.859 C374.091,546.178 374.192,546.520 374.250,546.878 C374.250,546.878 374.251,546.886 374.252,546.891 C374.574,548.871 373.516,550.746 371.787,551.545 ZM313.521,886.743 C313.521,886.743 313.519,886.743 313.518,886.743 C314.854,886.524 316.149,886.945 317.094,887.781 L444.407,768.020 C444.407,768.020 444.410,768.025 444.411,768.027 C444.410,768.025 444.408,768.022 444.408,768.022 C443.973,767.462 443.668,766.792 443.547,766.047 C443.297,764.507 443.880,763.023 444.965,762.060 L264.590,649.040 C263.564,650.309 262.088,651.219 260.353,651.501 C259.848,651.583 259.347,651.608 258.856,651.580 L256.743,663.246 L313.521,886.743 ZM256.402,665.130 L222.990,849.616 L310.405,888.915 C310.911,888.014 311.732,887.300 312.746,886.941 L256.402,665.130 ZM318.390,892.300 L356.501,907.588 L369.862,901.522 C369.860,901.513 369.859,901.504 369.857,901.494 C369.247,897.739 371.800,894.200 375.544,893.592 C378.053,893.184 380.465,894.191 381.968,896.026 L537.554,825.392 C537.447,825.061 537.363,824.718 537.306,824.365 C537.072,822.921 537.303,821.511 537.892,820.288 L452.054,766.502 C451.615,768.093 450.291,769.365 448.551,769.653 C447.206,769.872 445.901,769.447 444.953,768.603 L317.641,888.361 C318.081,888.922 318.389,889.598 318.514,890.351 C318.623,891.023 318.573,891.687 318.390,892.300 ZM1026.413,942.778 L1020.194,931.308 L987.675,871.322 C987.675,871.322 987.673,871.323 987.672,871.323 L1020.194,931.308 L987.664,871.326 C987.346,871.462 987.008,871.561 986.652,871.619 C984.540,871.962 982.529,870.731 981.827,868.783 L844.404,904.101 L981.825,868.776 L844.390,904.105 L844.404,904.101 L839.162,905.448 L839.161,905.448 L830.934,912.740 L832.097,931.599 L1001.888,992.696 L1026.530,950.025 C1025.538,949.379 1024.809,948.333 1024.603,947.070 C1024.325,945.355 1025.079,943.709 1026.413,942.778 ZM941.390,803.245 C943.766,802.860 946.010,804.476 946.396,806.852 C946.398,806.863 946.400,806.875 946.402,806.885 C946.485,807.396 946.474,807.899 946.383,808.379 L1026.405,737.466 C1025.910,736.757 1025.561,735.929 1025.413,735.018 C1025.398,734.923 1025.385,734.828 1025.373,734.732 L901.582,733.218 C901.741,733.563 901.859,733.937 901.925,734.331 C902.311,736.705 900.707,738.954 898.320,739.342 C895.945,739.728 893.703,738.121 893.315,735.734 C893.165,734.810 893.316,733.905 893.699,733.121 L886.096,733.027 L881.596,744.090 C882.770,744.705 883.649,745.849 883.878,747.259 C883.878,747.259 883.882,747.276 883.883,747.283 C884.108,748.665 883.658,750.001 882.777,750.950 L939.441,814.531 L942.390,811.917 C940.176,812.062 938.165,810.506 937.802,808.272 C937.800,808.265 937.799,808.257 937.799,808.257 L937.798,808.250 C937.412,805.876 939.027,803.639 941.390,803.245 ZM660.771,583.672 L637.005,563.314 L532.278,630.065 C532.416,630.430 532.519,630.815 532.584,631.216 C532.878,633.023 532.323,634.774 531.213,636.060 L617.821,724.358 L662.574,590.189 C661.269,589.614 660.270,588.413 660.022,586.901 C659.830,585.723 660.131,584.576 660.771,583.672 ZM662.337,882.629 C663.990,882.353 665.584,883.056 666.529,884.315 C666.529,884.315 666.534,884.322 666.537,884.325 C666.534,884.322 666.532,884.318 666.532,884.318 L666.529,884.315 L680.275,875.866 L559.071,829.785 L528.973,870.164 L505.529,939.174 L555.881,922.341 L658.803,887.931 C658.780,887.833 658.761,887.733 658.744,887.632 C658.744,887.628 658.744,887.626 658.744,887.626 L658.743,887.623 C658.357,885.248 659.960,883.014 662.337,882.629 ZM740.031,1003.936 L812.233,989.131 L813.732,932.010 C811.267,931.619 809.222,929.686 808.801,927.090 C808.671,926.291 808.707,925.504 808.882,924.762 L681.222,876.226 L666.950,885.000 C667.137,885.380 667.272,885.795 667.344,886.235 L667.347,886.251 C667.686,888.338 666.471,890.325 664.556,891.032 L696.265,1008.851 C696.278,1008.849 696.290,1008.847 696.301,1008.846 C698.481,1008.492 700.555,1009.821 701.177,1011.892 C701.178,1011.895 701.178,1011.898 701.178,1011.898 C701.233,1012.080 701.275,1012.264 701.306,1012.452 C701.275,1012.264 701.233,1012.080 701.180,1011.901 C701.180,1011.901 701.178,1011.895 701.177,1011.892 L740.031,1003.936 ZM834.269,980.582 C834.285,980.580 834.303,980.577 834.320,980.574 L831.382,932.975 L819.942,928.859 C819.110,930.476 817.549,931.692 815.615,932.006 C815.503,932.025 815.391,932.039 815.279,932.051 L813.788,988.812 L830.646,985.355 C830.397,983.061 831.978,980.954 834.269,980.582 ZM877.920,751.999 C876.570,751.440 875.534,750.219 875.282,748.672 C875.262,748.548 875.247,748.424 875.237,748.301 L851.602,747.930 L784.692,746.882 L809.728,892.831 L826.844,904.558 C827.493,903.777 828.415,903.217 829.492,903.040 C830.043,902.949 830.586,902.966 831.102,903.075 C831.102,903.075 831.109,903.075 831.112,903.076 C831.109,903.075 831.105,903.075 831.105,903.075 L831.102,903.075 L877.920,751.999 ZM837.201,905.132 L938.844,815.059 L890.132,760.392 L882.189,751.478 C881.652,751.879 881.013,752.159 880.306,752.274 C879.749,752.365 879.200,752.347 878.681,752.236 L851.347,840.435 L831.865,903.311 C832.982,903.773 833.888,904.693 834.315,905.874 L837.201,905.132 ZM834.515,906.636 C834.515,906.637 834.515,906.640 834.516,906.642 C834.561,906.919 834.577,907.194 834.570,907.464 L835.899,906.287 L834.516,906.642 C834.515,906.640 834.515,906.638 834.515,906.638 C834.515,906.637 834.515,906.637 834.515,906.636 ZM550.758,824.974 L559.258,828.205 L600.012,773.528 C599.302,772.889 598.794,772.012 598.625,770.994 L598.622,770.980 C598.599,770.834 598.583,770.689 598.574,770.544 C598.574,770.544 598.573,770.540 598.574,770.537 C598.573,770.540 598.574,770.542 598.574,770.542 L539.913,768.672 L544.245,816.382 C547.496,816.449 550.339,818.828 550.880,822.160 C551.037,823.128 550.986,824.081 550.758,824.974 ZM731.541,844.355 C731.354,843.974 731.219,843.562 731.148,843.123 C731.089,842.760 731.076,842.400 731.107,842.049 L727.880,838.760 L648.721,795.664 L606.556,772.712 C605.908,773.681 604.876,774.392 603.639,774.599 C602.562,774.774 601.513,774.538 600.650,774.006 L560.031,828.499 L681.933,874.847 L731.541,844.355 ZM682.879,875.206 L809.430,923.322 C809.591,923.022 809.777,922.737 809.987,922.469 L735.752,846.786 C734.242,846.889 732.824,846.197 731.957,845.034 L682.879,875.206 ZM598.599,769.741 C598.831,767.868 600.273,766.294 602.219,765.964 C602.804,765.868 603.380,765.895 603.923,766.023 L617.274,725.996 L530.066,637.086 C529.468,637.493 528.786,637.798 528.045,637.966 L539.840,767.867 L598.599,769.741 ZM604.694,766.282 C605.885,766.811 606.818,767.859 607.156,769.186 L652.366,761.773 L617.911,726.646 L604.694,766.282 ZM607.283,769.972 C607.336,770.690 607.208,771.386 606.937,772.013 L725.955,836.798 L653.047,762.467 L607.283,769.972 ZM730.573,839.311 L731.827,839.994 C732.473,839.027 733.502,838.321 734.741,838.120 C735.084,838.063 735.424,838.049 735.756,838.071 L750.135,750.187 C750.136,750.188 750.138,750.188 750.138,750.188 L735.762,838.071 L750.140,750.188 C750.140,750.188 750.136,750.188 750.135,750.187 C748.638,749.798 747.412,748.624 747.008,747.057 L654.901,762.163 L730.573,839.311 ZM736.542,838.200 C738.161,838.620 739.466,839.957 739.752,841.719 C739.753,841.724 739.754,841.731 739.754,841.731 C739.918,842.743 739.722,843.723 739.263,844.548 C739.261,844.551 739.260,844.552 739.260,844.552 C739.130,844.785 738.981,845.004 738.812,845.207 C738.440,845.659 737.974,846.039 737.441,846.314 L811.081,921.391 C811.619,920.985 812.231,920.666 812.902,920.459 L808.143,892.715 L782.751,875.312 L738.812,845.207 C738.981,845.004 739.130,844.785 739.259,844.555 C739.259,844.555 739.261,844.551 739.263,844.548 L807.954,891.615 L783.125,746.858 L755.574,746.425 C755.367,748.333 753.915,749.944 751.932,750.266 C751.591,750.323 751.254,750.338 750.924,750.315 L736.542,838.200 ZM751.392,741.590 L751.389,741.591 C751.389,741.591 751.396,741.591 751.400,741.591 C752.605,741.637 753.717,742.184 754.494,743.057 L779.335,724.753 L762.783,628.255 L749.347,629.642 C749.368,631.773 747.843,633.649 745.679,634.001 C745.657,634.004 745.633,634.008 745.611,634.010 L746.582,652.082 L751.400,741.591 C751.396,741.591 751.392,741.590 751.392,741.590 ZM775.810,731.816 C775.570,730.344 775.894,728.911 776.620,727.734 L754.965,743.694 C755.246,744.158 755.447,744.682 755.541,745.251 C755.561,745.375 755.576,745.499 755.586,745.621 L782.988,746.053 L781.400,736.799 C778.649,736.675 776.268,734.641 775.810,731.816 ZM780.933,724.964 C784.089,724.567 787.016,726.744 787.531,729.912 C787.551,730.037 787.567,730.160 787.579,730.284 L885.868,731.486 L913.535,663.464 L921.150,644.736 L906.039,632.366 L808.746,704.058 L780.870,724.602 L780.933,724.964 ZM787.532,731.821 C787.150,734.172 785.367,736.137 782.940,736.666 L784.555,746.078 L814.573,746.550 L875.249,747.501 C875.452,745.592 876.899,743.983 878.888,743.660 C879.572,743.545 880.243,743.599 880.864,743.790 L885.245,733.017 L787.532,731.821 ZM830.175,913.412 L819.578,922.804 C820.048,923.497 820.378,924.303 820.522,925.186 C820.646,925.948 820.619,926.700 820.463,927.412 L831.280,931.305 L830.175,913.412 ZM814.423,920.196 C815.976,920.133 817.445,920.683 818.559,921.653 L829.791,911.700 C827.866,911.512 826.222,910.048 825.897,908.049 C825.897,908.049 825.895,908.035 825.894,908.028 C825.731,907.025 825.929,906.046 826.390,905.221 L809.917,893.932 L814.423,920.196 ZM558.300,829.491 L550.210,826.416 C549.247,828.291 547.438,829.700 545.202,830.064 C544.317,830.208 543.445,830.175 542.619,829.992 L529.801,867.725 L558.300,829.491 ZM542.709,816.523 L538.363,768.623 L454.055,765.933 L538.711,818.980 C539.684,817.756 541.073,816.858 542.709,816.523 ZM538.289,767.817 L526.521,638.113 C523.927,638.028 521.645,636.243 520.973,633.689 L403.093,639.045 L446.761,761.103 C446.887,761.070 447.015,761.044 447.144,761.022 C449.524,760.635 451.761,762.249 452.155,764.633 C452.161,764.674 452.168,764.714 452.173,764.754 L452.705,765.087 L538.289,767.817 ZM525.771,626.313 C528.067,625.940 530.276,626.943 531.551,628.713 L635.792,562.275 L525.145,467.493 C524.529,468.096 523.728,468.523 522.813,468.672 C521.075,468.955 519.409,468.172 518.485,466.798 L468.614,494.079 L525.006,626.489 C525.253,626.414 525.508,626.355 525.771,626.313 ZM661.249,596.679 L618.457,725.008 L654.220,761.468 L746.880,746.274 C746.880,746.274 746.879,746.270 746.879,746.266 C746.718,744.040 748.276,742.020 750.517,741.647 C750.545,741.643 750.572,741.638 750.600,741.634 L744.815,634.058 C742.787,633.987 741.015,632.487 740.676,630.399 C740.538,629.551 740.653,628.720 740.967,627.984 L679.751,594.962 L667.966,588.606 C667.318,589.584 666.283,590.298 665.035,590.501 C664.450,590.596 663.872,590.570 663.328,590.441 L661.249,596.679 ZM668.339,587.914 C668.235,588.156 668.111,588.387 667.966,588.605 C668.111,588.386 668.235,588.155 668.339,587.915 C668.339,587.915 668.339,587.914 668.339,587.914 ZM668.634,585.489 C668.635,585.492 668.635,585.495 668.635,585.495 C668.773,586.345 668.657,587.174 668.341,587.911 L695.384,602.495 L741.348,627.277 C741.994,626.303 743.026,625.592 744.270,625.390 C746.611,624.997 748.828,626.555 749.268,628.847 L762.648,627.466 L743.620,516.531 L667.845,583.614 C668.240,584.152 668.518,584.787 668.634,585.489 ZM764.181,627.308 L884.674,614.874 L753.676,507.627 L744.972,515.333 L764.181,627.308 ZM764.316,628.097 L780.721,723.731 L797.988,711.005 L905.402,631.844 L885.546,615.589 L764.316,628.097 ZM906.680,630.903 L931.967,612.265 C931.967,612.265 931.970,612.269 931.971,612.270 C931.970,612.269 931.969,612.267 931.969,612.267 C931.715,611.841 931.529,611.367 931.430,610.854 L887.702,615.366 L906.680,630.903 ZM907.316,631.424 L921.756,643.246 L933.693,613.892 C933.220,613.645 932.795,613.313 932.440,612.911 C932.440,612.911 932.438,612.909 932.437,612.908 L907.316,631.424 ZM920.862,647.539 L886.718,731.496 L894.926,731.596 C895.483,731.156 896.156,730.849 896.907,730.727 C898.202,730.511 899.451,730.891 900.387,731.664 L1025.400,733.192 C1025.527,732.336 1025.840,731.530 1026.301,730.823 L921.790,645.260 L920.862,647.539 ZM840.465,904.294 L981.626,868.012 C981.627,868.015 981.627,868.020 981.627,868.020 C981.627,868.020 981.627,868.020 981.627,868.020 C981.627,868.018 981.626,868.015 981.626,868.012 C981.405,866.624 981.861,865.287 982.751,864.334 L939.867,816.207 L840.465,904.294 ZM832.200,933.269 L835.115,980.525 C837.163,980.582 838.937,982.087 839.292,984.176 C839.455,985.183 839.260,986.166 838.801,986.994 L955.077,1065.936 C955.726,1065.143 956.655,1064.574 957.744,1064.394 C958.639,1064.244 959.516,1064.382 960.283,1064.741 L1001.108,994.048 L832.200,933.269 ZM834.327,980.573 C834.594,980.533 834.855,980.517 835.111,980.524 C834.854,980.517 834.594,980.533 834.329,980.572 C834.329,980.572 834.328,980.573 834.327,980.573 ZM838.354,987.652 C837.704,988.446 836.774,989.014 835.686,989.190 C833.504,989.551 831.427,988.216 830.805,986.149 L813.766,989.639 L811.646,1070.376 L954.104,1068.360 C954.152,1067.730 954.336,1067.129 954.632,1066.593 L838.354,987.652 ZM812.211,989.958 L785.156,995.500 L701.336,1012.671 C701.600,1014.961 700.014,1017.082 697.707,1017.462 C696.239,1017.700 694.828,1017.178 693.869,1016.185 L625.650,1071.050 C625.982,1071.550 626.215,1072.128 626.321,1072.758 C626.334,1072.838 626.345,1072.919 626.354,1073.000 L810.100,1070.398 L812.211,989.958 ZM642.501,1056.475 L693.369,1015.561 C693.369,1015.561 693.373,1015.567 693.376,1015.570 C693.373,1015.567 693.371,1015.564 693.371,1015.564 C693.039,1015.061 692.807,1014.485 692.702,1013.855 C692.362,1011.762 693.566,1009.768 695.488,1009.059 C695.488,1009.059 695.489,1009.058 695.490,1009.058 L663.786,891.238 C663.786,891.238 663.764,891.241 663.753,891.243 C661.742,891.577 659.832,890.476 659.053,888.686 L636.678,896.165 L505.206,940.121 L494.060,972.935 L618.835,1070.471 C619.470,1069.794 620.325,1069.313 621.312,1069.153 C622.777,1068.911 624.189,1069.433 625.150,1070.427 L642.501,1056.475 ZM503.379,940.733 L471.410,951.421 C471.433,951.515 471.452,951.611 471.468,951.709 L471.470,951.720 C471.649,952.827 471.396,953.905 470.835,954.780 L492.779,971.934 L503.379,940.733 ZM471.160,950.663 C471.160,950.663 471.162,950.666 471.162,950.667 C471.162,950.666 471.162,950.664 471.162,950.664 L471.160,950.663 L503.701,939.786 L525.997,874.155 L470.083,949.165 C470.538,949.576 470.909,950.083 471.160,950.663 ZM526.826,871.716 L541.170,829.497 C539.940,828.916 538.895,827.978 538.189,826.792 L382.811,897.331 C383.109,897.933 383.323,898.590 383.437,899.288 C383.834,901.733 382.892,904.089 381.151,905.603 L391.285,921.542 L463.285,950.426 C463.897,949.234 465.045,948.338 466.469,948.101 C467.543,947.924 468.591,948.159 469.451,948.691 L526.826,871.716 ZM379.882,906.475 C379.234,906.821 378.518,907.069 377.753,907.193 C374.541,907.715 371.478,905.908 370.287,903.016 L358.473,908.380 L388.836,920.560 L379.882,906.475 ZM445.783,760.749 L402.256,639.083 L266.099,645.269 C266.029,646.139 265.794,646.974 265.423,647.735 L445.783,760.749 ZM468.296,493.333 L518.099,466.091 C517.959,465.767 517.856,465.420 517.796,465.055 C517.558,463.591 518.080,462.178 519.073,461.217 L476.480,408.286 C475.874,408.845 475.103,409.241 474.228,409.387 C471.848,409.774 469.615,408.152 469.214,405.776 C469.172,405.516 469.153,405.260 469.158,405.007 L453.266,403.955 L429.562,402.388 L468.296,493.333 ZM469.241,404.216 C469.586,402.485 470.966,401.066 472.813,400.766 C474.182,400.544 475.505,400.982 476.456,401.848 L488.590,387.789 L412.188,354.714 C411.690,355.556 410.989,356.271 410.139,356.780 L429.212,401.564 L469.241,404.216 ZM637.708,562.865 L661.291,583.064 C661.909,582.462 662.709,582.038 663.620,581.889 C665.013,581.652 666.359,582.113 667.315,583.014 L743.462,515.607 L741.144,502.094 C739.317,502.098 737.625,501.256 736.517,499.885 L637.708,562.865 ZM744.814,514.409 L753.052,507.117 L745.083,500.591 C744.407,501.194 743.588,501.648 742.666,501.892 L744.814,514.409 ZM754.219,506.084 L759.791,501.151 L746.688,498.255 C746.532,498.669 746.330,499.062 746.089,499.427 L754.219,506.084 ZM747.044,496.745 L761.228,499.879 L774.705,487.949 L747.016,495.338 C747.081,495.815 747.089,496.286 747.044,496.745 ZM762.188,500.092 L908.339,532.384 L893.709,490.227 L882.896,459.074 L776.421,487.491 L762.188,500.092 ZM909.263,532.589 L987.107,549.789 C987.443,547.716 988.867,545.941 990.862,545.186 L966.202,442.504 C963.398,442.856 960.748,441.159 959.847,438.537 L883.681,458.865 L909.263,532.589 ZM882.391,457.618 L866.644,412.255 C866.532,412.282 866.417,412.305 866.302,412.324 C864.911,412.550 863.562,412.090 862.607,411.191 L778.979,485.226 L882.391,457.618 ZM883.176,457.408 L959.537,437.022 C959.414,435.289 960.058,433.649 961.198,432.468 L950.468,420.128 L869.858,408.994 C869.557,410.308 868.660,411.424 867.414,411.989 L883.176,457.408 ZM1041.652,554.356 L1081.679,562.275 L1100.417,541.411 L1052.524,504.426 L1048.669,517.382 L1039.077,549.639 C1040.391,550.210 1041.396,551.423 1041.655,552.940 C1041.734,553.422 1041.729,553.899 1041.652,554.356 ZM1101.049,541.899 L1081.967,563.147 L1041.453,555.116 C1040.931,556.560 1039.661,557.689 1038.043,557.952 C1036.402,558.218 1034.819,557.530 1033.872,556.291 L1028.915,559.027 L1158.391,587.636 C1158.497,587.247 1158.643,586.872 1158.823,586.516 L1101.049,541.899 ZM1033.453,555.625 C1033.256,555.235 1033.113,554.807 1033.039,554.352 C1033.038,554.344 1033.037,554.337 1033.037,554.337 L1033.036,554.328 C1032.652,551.967 1034.263,549.728 1036.633,549.343 C1037.210,549.246 1037.778,549.266 1038.313,549.388 L1051.856,503.909 L969.866,440.591 C969.274,441.248 968.534,441.777 967.686,442.118 L992.367,544.833 C995.473,544.513 998.323,546.671 998.830,549.790 C998.973,550.671 998.914,551.539 998.686,552.348 L1027.753,558.770 L1033.453,555.625 ZM998.064,553.791 C997.199,555.243 995.722,556.318 993.922,556.611 C990.683,557.137 987.634,554.924 987.109,551.694 C987.091,551.582 987.076,551.471 987.063,551.360 L909.859,534.304 L934.662,605.784 C934.659,605.784 934.657,605.784 934.657,605.784 L909.848,534.302 L934.654,605.786 C934.395,605.850 934.147,605.936 933.910,606.042 C933.910,606.042 933.905,606.045 933.903,606.046 L908.935,534.101 L760.753,501.363 L754.842,506.595 L886.830,614.652 L931.348,610.059 C931.326,608.323 932.348,606.750 933.903,606.046 C933.905,606.045 933.907,606.044 933.907,606.044 C934.147,605.936 934.395,605.850 934.654,605.786 C934.654,605.786 934.659,605.784 934.662,605.784 C934.773,605.757 934.886,605.733 935.002,605.714 C936.731,605.420 938.395,606.207 939.318,607.574 L1025.710,559.899 L998.064,553.791 ZM936.402,614.327 C935.717,614.439 935.045,614.384 934.426,614.194 L922.396,643.769 L1027.299,729.653 C1028.119,728.909 1029.153,728.388 1030.320,728.198 C1031.954,727.933 1033.538,728.360 1034.775,729.266 L1080.823,679.217 L939.454,612.232 C938.820,613.306 937.731,614.101 936.402,614.327 ZM1027.442,738.601 L940.463,815.679 L983.350,863.800 C983.889,863.400 984.528,863.120 985.233,863.003 C986.528,862.790 987.787,863.171 988.729,863.948 L1047.721,804.672 L1032.082,739.956 C1030.358,740.193 1028.690,739.656 1027.442,738.601 ZM994.400,859.375 L989.294,864.506 C989.783,865.087 990.127,865.803 990.257,866.606 C990.541,868.353 989.744,870.025 988.366,870.947 L1007.523,906.278 L1027.108,942.383 C1027.446,942.231 1027.812,942.119 1028.196,942.057 C1030.583,941.669 1032.830,943.270 1033.218,945.655 C1033.373,946.610 1033.210,947.541 1032.802,948.340 L1090.276,980.775 L1047.941,805.579 L994.400,859.375 ZM1030.546,1082.884 C1030.626,1083.379 1030.620,1083.870 1030.540,1084.338 L1098.039,1032.659 C1097.497,1031.924 1097.117,1031.053 1096.961,1030.092 C1096.875,1029.561 1096.861,1029.034 1096.914,1028.524 L1001.869,994.323 L960.968,1065.140 C961.888,1065.794 962.555,1066.801 962.750,1067.999 C962.818,1068.420 962.824,1068.839 962.775,1069.243 L1022.085,1082.279 C1022.567,1080.755 1023.864,1079.552 1025.543,1079.284 C1027.917,1078.892 1030.159,1080.500 1030.546,1082.884 ZM1081.461,1298.010 C1081.830,1297.830 1082.231,1297.701 1082.656,1297.629 C1083.300,1297.525 1083.935,1297.568 1084.526,1297.734 L1108.162,1216.042 C1106.898,1215.453 1105.939,1214.273 1105.698,1212.795 C1105.697,1212.783 1105.695,1212.772 1105.693,1212.760 C1105.625,1212.343 1105.619,1211.930 1105.669,1211.531 L1056.144,1207.290 L1017.478,1203.983 C1017.301,1204.973 1016.786,1205.869 1016.040,1206.519 L1081.461,1298.010 ZM1017.489,1202.511 C1017.526,1202.738 1017.545,1202.964 1017.546,1203.188 L1105.843,1210.740 C1106.131,1209.841 1106.706,1209.054 1107.476,1208.508 L1028.527,1087.811 L1025.971,1089.768 L1014.065,1198.932 C1015.784,1199.289 1017.190,1200.670 1017.489,1202.511 ZM1008.855,1203.638 C1008.637,1201.358 1010.204,1199.274 1012.481,1198.899 C1012.747,1198.856 1013.012,1198.839 1013.272,1198.843 L1025.087,1090.445 L833.858,1236.850 L1008.855,1203.638 ZM830.099,1237.564 L830.514,1237.485 L1025.317,1088.338 L1025.367,1087.872 C1025.367,1087.872 1025.375,1087.874 1025.378,1087.874 C1025.375,1087.874 1025.371,1087.872 1025.371,1087.872 C1023.652,1087.518 1022.237,1086.140 1021.939,1084.304 C1021.870,1083.878 1021.864,1083.458 1021.916,1083.050 L962.605,1070.019 C962.125,1071.534 960.833,1072.731 959.163,1073.007 C958.047,1073.188 956.966,1072.934 956.091,1072.372 C956.091,1072.372 956.090,1072.372 956.090,1072.372 L828.896,1235.589 C829.454,1236.114 829.877,1236.788 830.099,1237.564 ZM828.267,1235.098 L937.428,1095.023 L955.462,1071.880 C954.789,1071.247 954.312,1070.393 954.152,1069.409 C954.151,1069.401 954.150,1069.395 954.148,1069.387 C954.136,1069.311 954.126,1069.234 954.118,1069.157 L811.624,1071.173 L807.311,1235.333 L821.690,1237.675 C822.107,1236.054 823.441,1234.751 825.196,1234.466 C826.310,1234.281 827.391,1234.534 828.267,1235.098 ZM810.032,1253.167 L823.825,1242.607 C822.688,1241.983 821.838,1240.859 821.612,1239.474 L821.611,1239.462 C821.556,1239.126 821.541,1238.793 821.564,1238.466 L807.290,1236.140 L806.888,1251.446 C808.096,1251.684 809.192,1252.293 810.032,1253.167 ZM801.263,1253.383 C802.141,1252.369 803.366,1251.646 804.795,1251.414 C804.981,1251.383 805.166,1251.363 805.351,1251.350 L805.757,1235.891 L762.226,1228.798 L801.263,1253.383 ZM676.054,1213.958 L756.627,1227.080 L657.159,1164.436 L676.054,1213.958 ZM656.250,1162.053 L760.500,1227.710 L805.778,1235.084 L810.080,1071.194 L726.720,1072.372 L626.366,1073.795 C626.248,1075.337 625.318,1076.702 623.944,1077.380 L656.250,1162.053 ZM475.527,1043.809 C475.760,1045.245 475.531,1046.649 474.951,1047.869 L655.138,1161.353 L623.197,1077.667 C623.045,1077.709 622.887,1077.745 622.728,1077.771 C620.341,1078.158 618.110,1076.545 617.713,1074.165 L617.712,1074.156 C617.532,1073.050 617.785,1071.971 618.348,1071.097 L493.792,973.724 L471.716,1038.705 C473.672,1039.647 475.151,1041.497 475.527,1043.809 ZM467.641,1038.117 C468.542,1037.971 469.428,1038.007 470.267,1038.199 L492.510,972.722 L470.353,955.402 C469.721,956.081 468.870,956.563 467.885,956.726 C465.495,957.114 463.250,955.502 462.863,953.122 C462.753,952.447 462.804,951.784 462.986,951.170 L392.017,922.694 L412.421,954.788 C413.070,953.927 414.038,953.304 415.187,953.115 C417.568,952.728 419.807,954.342 420.201,956.718 L420.204,956.735 C420.579,959.044 419.069,961.212 416.807,961.689 L465.769,1038.703 C466.348,1038.426 466.975,1038.225 467.641,1038.117 ZM206.598,979.072 C206.719,979.819 206.717,980.558 206.604,981.267 L462.281,1042.550 C462.715,1041.359 463.473,1040.308 464.464,1039.519 L414.987,961.696 C413.287,961.336 411.895,959.959 411.597,958.122 C411.503,957.546 411.527,956.979 411.649,956.444 L389.568,921.712 L357.472,908.834 L206.160,977.526 C206.361,978.012 206.510,978.529 206.598,979.072 ZM200.584,973.335 C202.538,973.556 204.291,974.607 205.413,976.182 L355.501,908.043 L318.096,893.034 C317.487,894.231 316.339,895.132 314.915,895.364 C312.544,895.749 310.292,894.142 309.906,891.766 C309.905,891.760 309.904,891.754 309.904,891.754 L309.903,891.748 C309.783,891.012 309.855,890.290 310.083,889.630 L222.846,850.413 L200.584,973.335 ZM228.175,560.457 L146.771,810.994 C148.096,811.559 149.109,812.770 149.358,814.301 C149.478,815.042 149.406,815.770 149.178,816.432 L221.547,848.968 L255.492,661.548 L229.826,560.509 C229.261,560.600 228.703,560.577 228.175,560.457 ZM365.643,548.290 C365.642,548.284 365.641,548.278 365.640,548.272 C365.638,548.262 365.637,548.254 365.635,548.244 L233.499,556.326 C233.454,558.131 232.296,559.723 230.599,560.316 L252.077,644.880 L255.833,659.663 L257.344,651.323 C254.869,650.607 252.901,648.525 252.460,645.810 C251.850,642.052 254.394,638.526 258.146,637.916 C261.890,637.308 265.420,639.848 266.030,643.605 C266.037,643.647 266.044,643.690 266.050,643.732 L401.714,637.569 L371.035,551.811 C370.910,551.843 370.782,551.870 370.652,551.891 C368.279,552.288 366.029,550.669 365.643,548.290 ZM269.767,503.094 C270.427,503.728 270.897,504.575 271.059,505.553 C271.169,506.226 271.116,506.890 270.931,507.504 L366.060,545.602 C366.671,544.410 367.819,543.511 369.237,543.281 C370.977,542.989 372.647,543.777 373.569,545.150 L466.940,494.075 L427.843,402.273 L353.863,397.385 L269.767,503.094 ZM440.832,286.525 L334.392,303.987 C334.382,303.861 334.367,303.733 334.346,303.606 C334.346,303.606 334.345,303.600 334.345,303.597 C334.345,303.600 334.346,303.603 334.346,303.603 C334.367,303.733 334.382,303.861 334.392,303.987 C334.540,305.964 333.334,307.770 331.500,308.415 L353.987,396.582 L427.492,401.450 L408.728,357.393 C408.507,357.456 408.278,357.508 408.044,357.546 C404.806,358.072 401.748,355.874 401.218,352.612 C400.694,349.387 402.899,346.335 406.137,345.809 C408.022,345.503 409.844,346.122 411.140,347.334 L467.897,311.017 L447.700,288.911 C447.151,289.327 446.495,289.619 445.768,289.737 C443.522,290.101 441.395,288.691 440.832,286.525 ZM648.626,180.724 C648.088,180.126 647.710,179.371 647.571,178.518 C647.354,177.180 647.760,175.884 648.576,174.937 L556.752,79.082 C556.225,79.459 555.606,79.723 554.922,79.834 C553.066,80.150 551.288,79.224 550.412,77.669 L446.820,125.882 C446.920,126.148 446.994,126.429 447.042,126.721 L447.044,126.734 C447.430,129.109 445.811,131.348 443.445,131.733 C443.060,131.795 442.679,131.805 442.309,131.769 L445.360,281.070 C447.302,281.207 448.976,282.643 449.344,284.630 L519.202,278.188 L615.653,216.472 L648.626,180.724 C648.804,180.921 648.999,181.101 649.209,181.263 C649.209,181.263 649.210,181.264 649.210,181.264 C648.999,181.101 648.804,180.921 648.626,180.724 ZM653.580,181.822 C653.263,181.956 652.925,182.056 652.569,182.114 C651.334,182.314 650.135,181.974 649.216,181.268 L618.314,214.770 L657.729,189.549 L653.580,181.822 ZM614.224,219.204 L591.354,243.998 L565.833,271.673 C566.376,272.274 566.758,273.035 566.901,273.898 C567.288,276.279 565.678,278.524 563.302,278.910 C562.402,279.056 561.523,278.915 560.756,278.556 L515.666,356.391 C516.585,357.041 517.253,358.044 517.448,359.244 C517.449,359.251 517.450,359.258 517.451,359.266 L577.791,355.163 C578.072,353.357 579.489,351.837 581.397,351.517 C583.589,351.173 585.668,352.511 586.283,354.586 L679.607,348.243 L704.651,276.920 L658.456,190.901 L614.224,219.204 ZM717.863,159.117 C715.676,159.208 713.659,158.083 712.557,156.282 L659.119,190.477 L705.439,276.705 L705.508,276.857 L680.177,348.995 L586.439,355.362 C586.430,355.289 586.421,355.216 586.409,355.143 C586.409,355.143 586.409,355.140 586.408,355.138 C586.421,355.216 586.430,355.289 586.439,355.362 C586.696,357.661 585.112,359.766 582.815,360.139 C580.436,360.544 578.189,358.938 577.798,356.529 C577.798,356.529 577.796,356.522 577.796,356.519 C577.765,356.328 577.748,356.139 577.742,355.952 L517.505,360.044 C517.463,362.115 515.953,363.914 513.851,364.265 C512.663,364.459 511.511,364.152 510.607,363.501 L490.413,386.904 L545.866,410.910 C546.418,410.486 547.080,410.189 547.815,410.069 C550.190,409.683 552.435,411.290 552.824,413.681 L552.825,413.690 C552.839,413.773 552.849,413.854 552.858,413.936 L735.973,493.203 C736.763,491.813 738.105,490.755 739.753,490.363 L717.863,159.117 ZM721.913,157.291 C721.233,158.002 720.375,158.548 719.391,158.853 L741.283,490.202 C743.630,490.259 745.725,491.709 746.617,493.866 L777.263,485.684 L862.084,410.599 C861.690,410.063 861.413,409.428 861.298,408.725 C860.910,406.333 862.534,404.097 864.889,403.702 C867.277,403.314 869.508,404.925 869.912,407.300 C869.963,407.610 869.979,407.917 869.965,408.218 L949.678,419.219 L721.913,157.291 ZM1163.168,583.327 C1164.551,583.102 1165.899,583.375 1167.031,584.014 L1265.271,434.352 C1264.202,433.468 1263.437,432.207 1263.197,430.729 C1263.039,429.760 1263.125,428.806 1263.409,427.934 L723.206,155.212 C723.103,155.493 722.980,155.764 722.839,156.024 L951.999,419.540 L1007.936,427.259 C1008.142,425.353 1009.586,423.752 1011.559,423.421 C1013.947,423.033 1016.178,424.655 1016.565,427.034 C1016.921,429.227 1015.585,431.306 1013.514,431.919 L1053.364,489.199 C1053.799,488.952 1054.284,488.776 1054.808,488.691 C1057.047,488.327 1059.171,489.737 1059.739,491.902 L1094.081,486.266 L1112.337,522.611 C1112.639,522.487 1112.960,522.395 1113.296,522.340 C1115.652,521.958 1117.895,523.566 1118.301,525.954 C1118.688,528.333 1117.062,530.569 1114.708,530.965 C1113.544,531.154 1112.411,530.868 1111.513,530.247 L1102.078,540.752 L1159.686,585.246 C1160.562,584.257 1161.770,583.554 1163.168,583.327 ZM1159.852,593.321 C1159.037,592.479 1158.463,591.389 1158.261,590.147 C1158.207,589.816 1158.182,589.488 1158.183,589.164 L1026.871,560.155 L939.695,608.259 C939.838,608.587 939.944,608.939 940.004,609.309 C940.129,610.078 940.045,610.832 939.795,611.513 L1081.382,678.610 L1159.852,593.321 ZM1139.541,709.347 C1139.416,708.578 1139.499,707.822 1139.750,707.139 L1082.277,679.905 L1035.890,730.326 C1036.520,731.106 1036.962,732.054 1037.134,733.114 C1037.584,735.885 1036.047,738.517 1033.568,739.553 L1048.997,803.389 L1091.471,760.709 L1140.502,711.437 C1140.016,710.857 1139.675,710.144 1139.541,709.347 ZM1144.559,712.952 C1143.260,713.165 1142.008,712.781 1141.071,712.003 L1049.216,804.297 L1092.120,981.816 L1105.646,989.449 C1106.294,988.508 1107.308,987.820 1108.523,987.623 C1110.144,987.353 1111.695,988.013 1112.649,989.207 L1275.774,881.546 C1275.554,881.135 1275.398,880.682 1275.320,880.198 C1275.079,878.718 1275.605,877.294 1276.607,876.335 L1187.163,763.778 L1146.240,712.289 C1145.746,712.617 1145.178,712.849 1144.559,712.952 ZM1324.960,729.531 C1323.641,728.962 1322.634,727.755 1322.379,726.234 C1322.330,725.928 1322.313,725.624 1322.326,725.325 L1148.134,709.432 C1147.964,710.338 1147.511,711.163 1146.858,711.792 C1146.858,711.792 1146.853,711.797 1146.850,711.800 C1146.853,711.797 1146.856,711.794 1146.856,711.794 L1230.672,817.257 C1230.414,816.812 1230.233,816.314 1230.146,815.777 C1230.144,815.769 1230.143,815.762 1230.142,815.754 C1229.756,813.380 1231.376,811.152 1233.736,810.758 C1236.112,810.372 1238.362,811.989 1238.748,814.363 C1239.136,816.749 1237.524,818.991 1235.155,819.382 C1233.769,819.611 1232.423,819.153 1231.467,818.258 L1277.228,875.840 C1277.228,875.840 1277.223,875.844 1277.221,875.845 C1277.223,875.844 1277.226,875.842 1277.226,875.842 C1277.722,875.516 1278.291,875.287 1278.912,875.186 C1279.458,875.096 1279.998,875.111 1280.508,875.215 L1324.960,729.531 ZM1280.323,883.798 C1278.713,884.062 1277.162,883.401 1276.211,882.211 C1276.211,882.211 1276.210,882.210 1276.210,882.209 L1113.089,989.875 C1113.307,990.284 1113.465,990.735 1113.546,991.216 C1113.845,993.057 1112.958,994.812 1111.440,995.696 L1147.908,1073.794 L1322.561,1109.780 C1323.147,1108.494 1324.337,1107.516 1325.816,1107.276 C1326.496,1107.166 1327.163,1107.217 1327.779,1107.402 L1332.390,885.600 L1283.902,880.341 C1283.554,882.071 1282.175,883.496 1280.323,883.798 ZM1270.341,1078.552 C1267.966,1078.947 1265.735,1077.328 1265.335,1074.946 C1264.949,1072.571 1266.554,1070.322 1268.939,1069.925 C1271.314,1069.540 1273.559,1071.156 1273.945,1073.531 C1274.332,1075.916 1272.715,1078.160 1270.341,1078.552 ZM1190.333,891.503 C1192.707,891.111 1194.950,892.727 1195.337,895.112 C1195.339,895.125 1195.341,895.137 1195.343,895.149 C1195.726,897.506 1194.106,899.737 1191.745,900.121 C1189.359,900.515 1187.127,898.899 1186.739,896.514 C1186.738,896.508 1186.737,896.500 1186.736,896.494 C1186.350,894.119 1187.964,891.888 1190.333,891.503 ZM1129.094,853.035 C1126.719,853.425 1124.476,851.815 1124.088,849.429 C1123.702,847.050 1125.305,844.801 1127.693,844.413 C1130.066,844.028 1132.311,845.637 1132.698,848.020 C1133.086,850.406 1131.480,852.638 1129.094,853.035 ZM1068.846,777.916 C1066.459,778.304 1064.228,776.695 1063.829,774.312 C1063.444,771.944 1065.047,769.688 1067.434,769.300 C1069.808,768.915 1072.052,770.521 1072.439,772.907 C1072.825,775.283 1071.219,777.524 1068.846,777.916 ZM1040.554,639.748 C1038.182,640.134 1035.931,638.528 1035.542,636.136 C1035.540,636.130 1035.539,636.122 1035.539,636.122 L1035.538,636.116 C1035.154,633.747 1036.766,631.507 1039.134,631.122 C1041.509,630.736 1043.751,632.344 1044.138,634.722 C1044.526,637.112 1042.921,639.345 1040.554,639.748 ZM1139.050,448.273 C1136.663,448.660 1134.411,447.041 1134.025,444.664 C1133.638,442.286 1135.241,440.039 1137.628,439.639 C1140.002,439.254 1142.252,440.872 1142.639,443.251 C1143.025,445.624 1141.415,447.875 1139.050,448.273 ZM1124.198,516.144 C1121.824,516.530 1119.573,514.924 1119.187,512.546 C1119.186,512.538 1119.185,512.530 1119.183,512.522 C1118.797,510.142 1120.414,507.921 1122.781,507.537 C1125.152,507.132 1127.398,508.758 1127.785,511.138 C1127.787,511.148 1127.788,511.159 1127.790,511.170 C1128.173,513.527 1126.556,515.761 1124.198,516.144 ZM1047.454,365.129 C1045.079,365.515 1042.836,363.906 1042.450,361.528 C1042.062,359.138 1043.677,356.885 1046.041,356.501 C1048.428,356.113 1050.670,357.721 1051.059,360.116 C1051.445,362.489 1049.839,364.722 1047.454,365.129 ZM764.537,330.331 C762.170,330.736 759.907,329.111 759.518,326.720 C759.135,324.360 760.750,322.108 763.123,321.709 C765.499,321.324 767.743,322.944 768.129,325.321 C768.131,325.333 768.133,325.344 768.135,325.356 C768.519,327.718 766.900,329.947 764.537,330.331 ZM609.800,436.920 C607.418,437.307 605.180,435.699 604.793,433.320 C604.793,433.316 604.792,433.312 604.791,433.307 C604.404,430.922 606.016,428.683 608.389,428.297 C610.763,427.912 613.001,429.520 613.400,431.909 C613.786,434.287 612.172,436.535 609.800,436.920 ZM587.102,125.064 C584.721,125.450 582.484,123.843 582.090,121.471 C581.701,119.075 583.314,116.829 585.690,116.443 C588.062,116.058 590.309,117.676 590.701,120.054 C590.702,120.060 590.703,120.067 590.704,120.073 C591.089,122.443 589.477,124.678 587.102,125.064 ZM329.923,903.562 C332.302,903.170 334.551,904.783 334.939,907.167 C334.939,907.167 334.940,907.179 334.941,907.184 C335.326,909.554 333.704,911.787 331.338,912.171 C328.967,912.567 326.721,910.950 326.335,908.575 C325.947,906.190 327.551,903.948 329.923,903.562 ZM460.265,992.808 C462.646,992.421 464.886,994.029 465.279,996.413 C465.666,998.798 464.059,1001.031 461.690,1001.431 C459.309,1001.818 457.064,1000.212 456.677,997.828 C456.289,995.443 457.893,993.193 460.265,992.808 ZM602.637,1096.588 C605.018,1096.201 607.255,1097.811 607.652,1100.193 C608.038,1102.571 606.426,1104.822 604.044,1105.214 C601.674,1105.599 599.425,1103.982 599.040,1101.607 C599.039,1101.602 599.038,1101.597 599.037,1101.592 C598.651,1099.214 600.263,1096.974 602.637,1096.588 ZM947.079,1161.177 C944.705,1161.573 942.460,1159.956 942.072,1157.571 C941.687,1155.197 943.290,1152.948 945.664,1152.556 C948.040,1152.170 950.282,1153.783 950.669,1156.162 C950.670,1156.169 950.672,1156.178 950.673,1156.187 C951.057,1158.549 949.444,1160.793 947.079,1161.177 ZM1008.283,1008.040 C1005.914,1008.425 1003.663,1006.817 1003.275,1004.427 C1002.889,1002.051 1004.495,999.808 1006.870,999.423 C1009.256,999.030 1011.486,1000.639 1011.872,1003.014 C1011.874,1003.025 1011.876,1003.036 1011.877,1003.047 C1012.264,1005.426 1010.645,1007.649 1008.283,1008.040 ZM963.120,644.498 C960.744,644.884 958.502,643.278 958.114,640.885 C958.112,640.874 958.110,640.862 958.108,640.851 C957.724,638.489 959.342,636.255 961.699,635.872 C964.075,635.486 966.324,637.092 966.710,639.470 C966.711,639.478 966.713,639.486 966.714,639.494 C967.100,641.873 965.488,644.114 963.120,644.498 ZM921.657,479.900 C924.031,479.501 926.279,481.140 926.666,483.517 C927.051,485.889 925.448,488.141 923.073,488.527 C920.686,488.915 918.451,487.286 918.053,484.916 C917.667,482.539 919.271,480.288 921.657,479.900 ZM482.659,453.359 C485.038,452.959 487.274,454.568 487.671,456.958 C487.672,456.963 487.672,456.966 487.672,456.966 C488.055,459.324 486.449,461.581 484.073,461.967 C481.691,462.354 479.451,460.747 479.057,458.357 C478.671,455.979 480.286,453.745 482.659,453.359 ZM520.867,952.809 C518.496,953.202 516.250,951.588 515.856,949.206 C515.470,946.827 517.082,944.588 519.455,944.192 C521.832,943.806 524.079,945.413 524.466,947.792 C524.853,950.176 523.250,952.423 520.867,952.809 ZM704.265,1066.218 C701.888,1066.604 699.641,1064.987 699.253,1062.597 C698.868,1060.228 700.472,1057.979 702.853,1057.592 C705.222,1057.208 707.470,1058.809 707.857,1061.193 C707.857,1061.193 707.858,1061.200 707.858,1061.203 C708.245,1063.583 706.636,1065.826 704.265,1066.218 ZM821.471,1027.300 C819.097,1027.686 816.853,1026.077 816.465,1023.693 C816.464,1023.683 816.461,1023.672 816.459,1023.661 C816.076,1021.299 817.695,1019.067 820.058,1018.674 C822.425,1018.283 824.677,1019.899 825.076,1022.287 C825.462,1024.662 823.846,1026.914 821.471,1027.300 ZM802.508,586.357 C804.896,585.969 807.146,587.575 807.532,589.953 C807.917,592.325 806.314,594.577 803.927,594.977 C801.555,595.362 799.302,593.744 798.916,591.366 C798.530,588.987 800.136,586.756 802.508,586.357 ZM684.456,721.081 C686.837,720.695 689.084,722.308 689.472,724.694 C689.858,727.071 688.254,729.319 685.883,729.705 C683.503,730.097 681.260,728.474 680.868,726.102 C680.481,723.716 682.085,721.475 684.456,721.081 ZM746.880,746.272 L654.220,761.468 L746.879,746.266 C746.879,746.270 746.880,746.272 746.880,746.272 ZM801.976,723.501 C799.609,723.891 797.359,722.278 796.973,719.900 C796.970,719.892 796.969,719.885 796.969,719.885 L796.967,719.877 C796.583,717.504 798.196,715.260 800.563,714.876 C802.950,714.488 805.182,716.105 805.588,718.483 C805.974,720.864 804.351,723.115 801.976,723.501 ZM642.476,810.443 C640.095,810.837 637.848,809.220 637.462,806.845 C637.461,806.839 637.460,806.834 637.459,806.829 C637.074,804.454 638.686,802.218 641.057,801.825 C643.432,801.434 645.680,803.048 646.067,805.431 C646.068,805.437 646.069,805.443 646.070,805.448 C646.455,807.817 644.845,810.059 642.476,810.443 ZM826.345,872.013 C823.958,872.407 821.725,870.782 821.328,868.409 C820.941,866.024 822.556,863.781 824.931,863.387 C827.304,862.994 829.547,864.617 829.933,866.993 C830.321,869.380 828.717,871.618 826.345,872.013 ZM234.641,822.733 C232.258,823.120 230.012,821.509 229.627,819.139 L229.626,819.129 C229.238,816.746 230.847,814.506 233.224,814.114 C235.606,813.727 237.847,815.345 238.236,817.735 L238.237,817.745 C238.621,820.110 237.009,822.348 234.641,822.733 ZM463.019,600.202 C465.408,599.814 467.647,601.428 468.041,603.798 C468.427,606.175 466.814,608.421 464.436,608.828 C462.066,609.213 459.820,607.588 459.427,605.216 C459.041,602.838 460.648,600.587 463.019,600.202 ZM666.139,538.715 C663.767,539.118 661.526,537.493 661.132,535.114 C661.132,535.114 661.131,535.107 661.130,535.102 C660.743,532.717 662.355,530.491 664.724,530.092 C667.102,529.706 669.338,531.327 669.729,533.705 C670.118,536.097 668.511,538.330 666.139,538.715 ZM1001.994,445.532 C999.622,445.929 997.375,444.304 996.989,441.931 C996.603,439.553 998.189,437.310 1000.578,436.922 C1002.948,436.520 1005.200,438.142 1005.586,440.516 C1005.586,440.516 1005.588,440.531 1005.590,440.540 C1005.974,442.906 1004.361,445.147 1001.994,445.532 ZM1296.516,561.695 C1294.128,562.083 1291.895,560.454 1291.497,558.084 C1291.111,555.705 1292.714,553.455 1295.103,553.067 C1297.476,552.682 1299.719,554.296 1300.105,556.666 C1300.491,559.046 1298.891,561.309 1296.516,561.695 ZM1297.700,643.929 C1298.086,646.306 1296.474,648.542 1294.088,648.935 C1291.721,649.328 1289.470,647.721 1289.085,645.346 C1288.695,642.949 1290.301,640.711 1292.675,640.325 C1295.061,639.929 1297.312,641.545 1297.700,643.929 ZM1267.314,364.448 C1264.940,364.846 1262.698,363.236 1262.296,360.849 C1261.911,358.476 1263.530,356.236 1265.915,355.836 C1268.272,355.453 1270.520,357.059 1270.909,359.450 C1270.909,359.450 1270.911,359.465 1270.913,359.473 C1271.295,361.829 1269.681,364.064 1267.314,364.448 ZM1260.849,216.741 C1258.462,217.129 1256.220,215.522 1255.834,213.145 C1255.832,213.134 1255.830,213.123 1255.829,213.112 C1255.445,210.749 1257.061,208.518 1259.435,208.113 C1261.791,207.731 1264.054,209.335 1264.443,211.727 C1264.829,214.105 1263.225,216.356 1260.849,216.741 ZM1236.127,91.843 C1233.752,92.229 1231.501,90.612 1231.114,88.230 C1230.728,85.853 1232.339,83.606 1234.726,83.218 C1237.093,82.816 1239.344,84.440 1239.730,86.819 C1240.115,89.190 1238.514,91.455 1236.127,91.843 ZM1166.855,147.582 C1164.480,147.968 1162.238,146.360 1161.851,143.981 C1161.849,143.969 1161.848,143.957 1161.846,143.946 C1161.462,141.585 1163.082,139.356 1165.456,138.971 C1167.831,138.585 1170.062,140.194 1170.459,142.565 C1170.845,144.941 1169.230,147.197 1166.855,147.582 ZM1144.544,8.697 C1142.176,9.082 1139.927,7.475 1139.541,5.096 C1139.152,2.706 1140.774,0.451 1143.130,0.068 C1145.517,-0.320 1147.761,1.289 1148.149,3.678 C1148.536,6.057 1146.919,8.312 1144.544,8.697 ZM1099.087,89.112 C1096.712,89.498 1094.466,87.876 1094.080,85.500 C1093.694,83.121 1095.284,80.872 1097.672,80.484 C1100.048,80.098 1102.290,81.712 1102.679,84.103 C1102.680,84.112 1102.682,84.119 1102.682,84.119 C1103.067,86.493 1101.450,88.715 1099.087,89.112 ZM1020.169,132.094 C1017.776,132.483 1015.533,130.875 1015.145,128.485 C1014.758,126.106 1016.361,123.855 1018.749,123.467 C1021.123,123.082 1023.369,124.707 1023.756,127.086 C1024.141,129.458 1022.537,131.709 1020.169,132.094 ZM935.099,194.446 C932.726,194.844 930.481,193.223 930.098,190.865 C930.097,190.857 930.096,190.850 930.094,190.842 C929.707,188.460 931.320,186.221 933.686,185.837 C936.043,185.454 938.304,187.058 938.692,189.448 C939.077,191.816 937.455,194.064 935.099,194.446 ZM889.857,106.085 C887.483,106.470 885.239,104.862 884.851,102.473 C884.465,100.095 886.071,97.862 888.458,97.474 C890.833,97.088 893.063,98.698 893.463,101.074 C893.851,103.463 892.245,105.697 889.857,106.085 ZM829.597,30.963 C827.226,31.367 824.994,29.757 824.594,27.367 C824.208,24.990 825.812,22.737 828.198,22.349 C830.573,21.964 832.803,23.574 833.205,25.968 C833.591,28.341 831.972,30.577 829.597,30.963 ZM781.306,147.256 C778.933,147.641 776.688,146.035 776.302,143.655 C775.914,141.266 777.520,139.032 779.896,138.646 C782.261,138.250 784.523,139.853 784.911,142.245 C785.300,144.635 783.694,146.868 781.306,147.256 ZM703.556,64.919 C701.203,65.313 698.951,63.695 698.565,61.317 C698.563,61.308 698.562,61.300 698.562,61.300 L698.561,61.292 C698.176,58.923 699.791,56.691 702.157,56.307 C704.532,55.921 706.776,57.529 707.162,59.907 C707.164,59.918 707.166,59.930 707.168,59.942 C707.554,62.316 705.932,64.533 703.556,64.919 ZM374.424,195.218 C372.043,195.605 369.804,193.990 369.409,191.619 C369.022,189.241 370.636,186.994 373.010,186.608 C375.374,186.206 377.629,187.829 378.018,190.220 C378.018,190.226 378.019,190.230 378.020,190.234 C378.402,192.587 376.784,194.835 374.424,195.218 ZM220.639,148.026 C218.265,148.412 216.012,146.820 215.623,144.429 C215.235,142.036 216.852,139.803 219.223,139.398 C221.595,139.013 223.848,140.619 224.245,143.008 C224.631,145.386 223.012,147.641 220.639,148.026 ZM206.774,263.483 C204.402,263.888 202.162,262.261 201.775,259.883 C201.774,259.879 201.774,259.873 201.774,259.873 L201.773,259.868 C201.387,257.495 202.989,255.248 205.358,254.863 C207.739,254.476 209.976,256.084 210.364,258.474 L210.367,258.490 C210.752,260.861 209.142,263.098 206.774,263.483 ZM207.461,326.074 C207.852,328.483 206.237,330.717 203.864,331.103 C201.491,331.488 199.239,329.882 198.849,327.485 C198.849,327.482 198.848,327.478 198.847,327.475 C198.465,325.119 200.083,322.879 202.450,322.494 C204.822,322.089 207.072,323.715 207.461,326.074 ZM150.432,161.690 C148.052,162.077 145.821,160.468 145.431,158.089 C145.042,155.698 146.644,153.447 149.025,153.061 C151.397,152.675 153.645,154.287 154.033,156.678 C154.420,159.057 152.815,161.303 150.432,161.690 ZM150.253,571.431 C150.640,573.811 149.026,576.058 146.654,576.443 C144.274,576.830 142.033,575.222 141.641,572.849 C141.255,570.473 142.858,568.221 145.246,567.833 C147.619,567.435 149.861,569.055 150.253,571.431 ZM132.550,920.479 C130.176,920.865 127.939,919.248 127.544,916.881 C127.155,914.490 128.761,912.248 131.135,911.863 C133.506,911.472 135.751,913.078 136.139,915.463 C136.139,915.463 136.141,915.474 136.142,915.481 C136.526,917.847 134.915,920.088 132.550,920.479 ZM89.865,143.448 C87.485,143.834 85.241,142.240 84.855,139.861 L84.851,139.842 C84.464,137.460 86.076,135.224 88.452,134.838 C90.832,134.451 93.070,136.060 93.458,138.450 L93.460,138.465 C93.846,140.837 92.233,143.063 89.865,143.448 ZM24.707,186.737 C22.326,187.124 20.088,185.515 19.693,183.139 C19.304,180.749 20.921,178.514 23.292,178.129 C25.671,177.729 27.917,179.336 28.305,181.726 C28.305,181.726 28.306,181.734 28.307,181.738 C28.692,184.106 27.083,186.351 24.707,186.737 ZM25.732,355.901 C25.732,355.901 25.734,355.908 25.734,355.911 C26.122,358.297 24.512,360.526 22.139,360.911 C19.758,361.298 17.514,359.703 17.123,357.300 L17.121,357.290 C16.738,354.929 18.351,352.688 20.725,352.302 C23.101,351.916 25.346,353.522 25.732,355.901 ZM5.071,333.598 C2.699,333.983 0.456,332.357 0.065,329.985 C-0.322,327.607 1.282,325.357 3.657,324.971 C6.042,324.570 8.282,326.197 8.676,328.567 C8.677,328.570 8.677,328.573 8.677,328.573 C9.064,330.951 7.455,333.192 5.071,333.598 ZM183.008,1023.510 C185.388,1023.113 187.627,1024.739 188.023,1027.115 C188.408,1029.489 186.805,1031.737 184.415,1032.135 C182.042,1032.520 179.795,1030.905 179.409,1028.530 C179.409,1028.530 179.408,1028.519 179.406,1028.513 C179.022,1026.137 180.632,1023.896 183.008,1023.510 ZM211.664,1434.711 C214.034,1434.320 216.281,1435.927 216.669,1438.317 C216.670,1438.322 216.671,1438.327 216.671,1438.332 C217.057,1440.703 215.444,1442.935 213.081,1443.329 C210.704,1443.715 208.468,1442.097 208.072,1439.723 L208.069,1439.708 C207.684,1437.332 209.295,1435.105 211.664,1434.711 ZM257.376,1258.071 C259.757,1257.685 261.999,1259.307 262.391,1261.683 C262.777,1264.061 261.174,1266.309 258.793,1266.703 C256.413,1267.095 254.171,1265.472 253.778,1263.098 C253.392,1260.723 254.994,1258.465 257.376,1258.071 ZM298.611,1154.759 C300.991,1154.373 303.240,1155.988 303.627,1158.373 C304.013,1160.747 302.398,1162.992 300.018,1163.385 C297.648,1163.776 295.406,1162.163 295.013,1159.778 C294.625,1157.393 296.230,1155.154 298.611,1154.759 ZM307.278,1295.762 C309.658,1295.370 311.905,1296.983 312.292,1299.362 L312.294,1299.374 C312.680,1301.754 311.069,1303.985 308.694,1304.381 C306.312,1304.768 304.072,1303.156 303.683,1300.765 C303.683,1300.765 303.682,1300.757 303.681,1300.753 C303.297,1298.385 304.902,1296.155 307.278,1295.762 ZM340.798,1021.259 C343.177,1020.866 345.426,1022.489 345.812,1024.864 C346.199,1027.242 344.593,1029.490 342.215,1029.883 C339.839,1030.276 337.592,1028.656 337.199,1026.273 C336.813,1023.893 338.426,1021.644 340.798,1021.259 ZM359.689,1136.434 C362.076,1136.046 364.318,1137.664 364.711,1140.043 C365.097,1142.422 363.488,1144.679 361.107,1145.066 C358.732,1145.452 356.485,1143.839 356.093,1141.460 C355.707,1139.084 357.315,1136.825 359.689,1136.434 ZM386.529,1187.300 C388.904,1186.915 391.158,1188.526 391.544,1190.905 C391.931,1193.285 390.320,1195.529 387.939,1195.916 C385.564,1196.302 383.327,1194.695 382.932,1192.320 L382.930,1192.308 C382.544,1189.929 384.154,1187.692 386.529,1187.300 ZM397.399,1305.002 C399.778,1304.610 402.026,1306.227 402.418,1308.601 C402.804,1310.975 401.195,1313.235 398.815,1313.621 C396.439,1314.013 394.193,1312.390 393.807,1310.015 C393.806,1310.012 393.806,1310.008 393.806,1310.008 L393.805,1310.004 C393.418,1307.625 395.027,1305.387 397.399,1305.002 ZM416.290,1420.178 C418.677,1419.790 420.926,1421.408 421.313,1423.789 C421.699,1426.167 420.085,1428.418 417.704,1428.805 C415.334,1429.201 413.085,1427.584 412.698,1425.204 C412.308,1422.820 413.914,1420.564 416.290,1420.178 ZM471.787,1236.859 C474.168,1236.472 476.406,1238.085 476.801,1240.464 L476.803,1240.474 C477.190,1242.853 475.572,1245.083 473.209,1245.472 C470.829,1245.869 468.590,1244.250 468.195,1241.868 C467.809,1239.492 469.422,1237.243 471.787,1236.859 ZM516.865,1276.553 C519.247,1276.166 521.492,1277.773 521.879,1280.158 C522.266,1282.542 520.659,1284.776 518.281,1285.171 C515.909,1285.556 513.660,1283.948 513.274,1281.573 C512.887,1279.187 514.493,1276.938 516.865,1276.553 ZM561.402,1199.901 C563.783,1199.515 566.023,1201.138 566.419,1203.513 C566.804,1205.887 565.196,1208.130 562.809,1208.525 C560.439,1208.918 558.196,1207.295 557.804,1204.920 C557.418,1202.542 559.022,1200.295 561.402,1199.901 ZM565.774,1380.085 C568.154,1379.699 570.400,1381.298 570.788,1383.688 C571.174,1386.064 569.569,1388.313 567.190,1388.706 C564.809,1389.092 562.561,1387.479 562.175,1385.101 C561.788,1382.719 563.391,1380.472 565.774,1380.085 ZM576.051,1227.937 C578.434,1227.550 580.680,1229.152 581.067,1231.535 C581.454,1233.920 579.849,1236.159 577.469,1236.555 C575.097,1236.941 572.851,1235.330 572.452,1232.951 C572.066,1230.572 573.681,1228.322 576.051,1227.937 ZM611.304,1237.586 C613.685,1237.199 615.922,1238.808 616.317,1241.181 C616.317,1241.181 616.318,1241.188 616.319,1241.193 C616.705,1243.571 615.086,1245.817 612.712,1246.211 C610.340,1246.597 608.100,1244.986 607.705,1242.590 C607.320,1240.221 608.924,1237.979 611.304,1237.586 ZM619.319,1321.723 C621.690,1321.338 623.936,1322.944 624.325,1325.336 C624.711,1327.714 623.099,1329.947 620.724,1330.339 C618.343,1330.726 616.107,1329.117 615.722,1326.749 C615.722,1326.749 615.720,1326.736 615.719,1326.729 C615.332,1324.348 616.945,1322.114 619.319,1321.723 ZM641.645,1210.731 C644.019,1210.346 646.266,1211.953 646.653,1214.337 L646.655,1214.347 C647.040,1216.717 645.432,1218.971 643.055,1219.357 C640.681,1219.747 638.432,1218.127 638.040,1215.745 C637.653,1213.367 639.264,1211.118 641.645,1210.731 ZM692.083,1346.349 C694.469,1345.952 696.707,1347.576 697.104,1349.945 C697.491,1352.330 695.878,1354.586 693.497,1354.972 C691.126,1355.367 688.877,1353.744 688.489,1351.360 L688.487,1351.348 C688.105,1348.985 689.710,1346.734 692.083,1346.349 ZM869.801,1321.904 C872.170,1321.519 874.420,1323.125 874.808,1325.517 C875.194,1327.895 873.589,1330.137 871.216,1330.529 C868.830,1330.922 866.597,1329.297 866.211,1326.922 C866.208,1326.911 866.206,1326.900 866.204,1326.888 C865.821,1324.520 867.440,1322.293 869.801,1321.904 ZM1129.085,1132.024 C1131.457,1131.639 1133.689,1133.249 1134.088,1135.625 C1134.475,1138.004 1132.870,1140.248 1130.496,1140.643 C1128.111,1141.037 1125.865,1139.421 1125.479,1137.044 C1125.091,1134.654 1126.696,1132.413 1129.085,1132.024 ZM1204.146,1164.778 C1206.516,1164.393 1208.767,1166.009 1209.153,1168.383 C1209.539,1170.762 1207.935,1173.011 1205.546,1173.398 C1203.186,1173.788 1200.943,1172.180 1200.556,1169.796 C1200.554,1169.786 1200.552,1169.775 1200.551,1169.764 C1200.168,1167.408 1201.782,1165.162 1204.146,1164.778 ZM1273.035,1119.916 C1275.420,1119.529 1277.651,1121.138 1278.051,1123.521 C1278.437,1125.897 1276.818,1128.133 1274.463,1128.524 C1272.072,1128.912 1269.827,1127.312 1269.441,1124.933 C1269.440,1124.926 1269.439,1124.920 1269.438,1124.914 C1269.053,1122.547 1270.665,1120.301 1273.035,1119.916 ZM1298.961,1264.816 C1301.354,1264.428 1303.599,1266.036 1303.987,1268.430 C1303.987,1268.430 1303.990,1268.443 1303.991,1268.451 C1304.375,1270.815 1302.761,1273.048 1300.393,1273.433 C1298.018,1273.824 1295.774,1272.217 1295.386,1269.832 C1295.385,1269.821 1295.383,1269.811 1295.381,1269.800 C1294.996,1267.429 1296.617,1265.207 1298.961,1264.816 Z" class="cls-1"/>
</svg>
